<?xml version="1.0" encoding="utf-8"?>
<svg viewBox="-14.324 -11.271 512 512" fill="#7289da" xmlns="http://www.w3.org/2000/svg">
  <rect width="512" height="512" rx="97.553" ry="97.553" x="-14.324" y="-11.271"/>
  <path d="M 331.676 378.729 L 310.676 353.729 C 351.676 342.729 367.676 314.729 367.676 314.729 C 315.676 363.729 173.676 365.729 118.676 314.729 C 118.676 314.729 132.676 340.729 174.676 353.729 L 151.676 378.729 C 81.676 377.729 54.676 330.729 54.676 330.729 C 54.676 226.729 100.676 143.729 100.676 143.729 C 147.676 110.729 190.676 110.729 190.676 110.729 L 193.676 114.729 C 135.676 130.729 110.676 156.729 110.676 156.729 C 178.676 110.729 318.676 114.729 373.676 156.729 C 374.676 155.729 340.676 128.729 287.676 114.729 L 292.676 110.729 C 292.676 110.729 335.676 110.729 382.676 143.729 C 382.676 143.729 428.676 226.729 428.676 330.729 C 428.676 330.729 401.676 377.729 331.676 378.729 Z" fill="#fff"/>
  <ellipse cx="183.676" cy="244.729" rx="33" ry="35"/>
  <ellipse cx="299.676" cy="244.729" rx="33" ry="35"/>
</svg>