<?xml version="1.0" encoding="utf-8"?>
<svg viewBox="0 0 225 225" xmlns="http://www.w3.org/2000/svg">
  <rect x="2.218" y="2.404" width="220.563" height="220.192" style="" rx="29.705" ry="29.705"/>
  <rect x="26.904" y="25.271" width="90.602" height="154.097" style="stroke: rgb(0, 0, 0); fill: rgb(255, 255, 255);"/>
  <rect x="118.991" y="46.436" width="73.892" height="133.675" style="stroke: rgb(0, 0, 0); fill: rgb(0, 234, 100);"/>
  <path d="M 18.64 112.5 L 20 206 L 200 206 L 200 16 L 20 16 L 18.64 112.5 Z M 62.196 90.753 L 62.476 103.633 L 85.471 103.633 L 85.516 60 L 111.1 60 L 111.1 172.156 L 85.471 172.156 L 85.471 121.367 L 62.476 121.367 L 62.196 134.153 L 61.916 172.64 L 48.651 172.64 L 36.876 172.64 L 37.6 60 L 51.3 60 L 61.9 60 L 62.196 90.753 Z M 186.391 112.5 L 186.391 171.689 L 146.1 171.969 L 120.433 172.156 L 120.4 60 L 146.1 60 L 186.4 60 L 186.391 112.5 Z"/>
</svg>